inDegrees=yes
name=ik_S53_A06_T01
DataType=double
version=3
OpenSimVersion=4.3-2021-08-27-4bc7ad9
endheader
time	pelvis_tilt	pelvis_list	pelvis_rotation	pelvis_tx	pelvis_ty	pelvis_tz	hip_flexion_r	hip_adduction_r	hip_rotation_r	knee_angle_r	knee_angle_r_beta	ankle_angle_r	subtalar_angle_r	mtp_angle_r	hip_flexion_l	hip_adduction_l	hip_rotation_l	knee_angle_l	knee_angle_l_beta	ankle_angle_l	subtalar_angle_l	mtp_angle_l	lumbar_extension	lumbar_bending	lumbar_rotation	arm_flex_r	arm_add_r	arm_rot_r	elbow_flex_r	pro_sup_r	wrist_flex_r	wrist_dev_r	arm_flex_l	arm_add_l	arm_rot_l	elbow_flex_l	pro_sup_l	wrist_flex_l	wrist_dev_l
15.27999999999976	-6.522953460332535	0.5678183112364448	15.98446271274316	0	0.9399999999999999	0	41.14186722448169	-10.8217102048354	-10.41013627026006	54.65589558974318	0.9539253336672664	0	0	0	41.14186722448169	-10.8217102048354	-10.41013627026006	54.65589558974318	0.9539253336672664	0	0	0	-5.418874803046038	1.216684416276575	-0.9625593655033428	25.68617577039775	-1.923640024811535	10.72723332860835	44.32894140961834	121.6621007681068	0	0	54.92972326094688	9.692312250344303	13.08321245569932	27.0560025889148	113.2827376771868	0	0
15.29999999999976	-6.523704353530489	0.5715832847743699	15.98107805994267	0	0.9399999999999999	0	41.1400655702671	-10.82384827042108	-10.41070861617168	54.65580074431357	0.9539236783022391	0	0	0	41.1400655702671	-10.82384827042108	-10.41070861617168	54.65580074431357	0.9539236783022391	0	0	0	-5.418749772777234	1.217152482667496	-0.9292314774185781	25.67921856884854	-1.938979348821671	10.69958550488261	44.33333154807296	121.7036017684888	0	0	54.91086398555946	9.727456311716804	13.23520351071577	26.83157530029513	113.0413942550569	0	0
15.31999999999976	-6.522324795903813	0.5763796731485251	15.98682274398944	0	0.9399999999999999	0	41.14054171729012	-10.82409802598731	-10.41070365932188	54.65583802213881	0.9539243289230276	0	0	0	41.14054171729012	-10.82409802598731	-10.41070365932188	54.65583802213881	0.9539243289230276	0	0	0	-5.416362689798935	1.220567046983519	-0.9181900154032893	25.67566406853713	-1.948061241448027	10.70442679483006	44.3055195682789	121.7659257239142	0	0	54.87492426470392	9.751546953269038	13.31174322054057	26.69011276716071	112.9841627426275	0	0
15.33999999999976	-6.527145482613628	0.5776021718787612	16.00407477382216	0	0.9399999999999999	0	41.14301234721508	-10.82268516177291	-10.41019679709067	54.65599234367319	0.9539270223419093	0	0	0	41.14301234721508	-10.82268516177291	-10.41019679709067	54.65599234367319	0.9539270223419093	0	0	0	-5.421007671369197	1.223138256601293	-0.9126728142412162	25.67664212521119	-1.949236359181679	10.68352550767983	44.31385924250137	121.7620740130863	0	0	54.87897510107764	9.798961919951607	13.27667793146022	26.68255099781619	112.9623389744038	0	0
15.35999999999976	-6.527720895109232	0.5810000663944247	16.02128827009645	0	0.9399999999999999	0	41.13999794347282	-10.82468805542571	-10.41087609109794	54.65581096806928	0.9539238567404383	8.537199698315675e-36	0	0	41.13999794347282	-10.82468805542571	-10.41087609109794	54.65581096806928	0.9539238567404383	8.537199698315675e-36	0	0	-5.420228339140018	1.22599056339012	-0.9134561159808842	25.6821232879889	-1.939376572937566	10.67322851931321	44.29279058902566	121.7824966313274	0	0	54.85876908260104	9.814516784678139	13.24720807558893	26.57834077937794	112.975496907408	0	0
15.37999999999976	-6.525490007482126	0.5901098310059097	16.05498345731121	0	0.9399999999999999	0	41.14114944637497	-10.82383128612483	-10.41060231106379	54.65587961809953	0.9539250549094976	0	0	0	41.14114944637497	-10.82383128612483	-10.41060231106379	54.65587961809953	0.9539250549094976	0	0	0	-5.415185220574299	1.239346751749018	-0.9668363979321587	25.61016294382521	-2.000685628008427	11.08234965877914	44.44547802205152	121.4742119639539	0	0	54.85086095188137	9.77107999226935	13.24241657215208	26.16205326626589	112.9366074287063	0	0
15.39999999999976	-6.532871502076698	0.5982577098193526	16.04435857945621	0	0.9399999999999999	0	41.13579043976684	-10.82726014892455	-10.41178278730079	54.65555447357422	0.9539193800669863	0	0	0	41.13579043976684	-10.82726014892455	-10.41178278730079	54.65555447357422	0.9539193800669863	0	0	0	-5.419426896698153	1.247469830396536	-0.9605314437606515	25.63236233455391	-1.989015610437899	11.03632615806619	44.42783419095287	121.5005944189725	0	0	54.84751596823791	9.773261406334546	13.2559848688976	26.01815756126988	112.9822311248033	0	0
15.41999999999976	-6.539401229103934	0.6053690305703637	16.02911917174428	0	0.9399999999999999	0	41.13478845123152	-10.82753535630367	-10.41194200825384	54.65548924850611	0.9539182416747929	0	0	0	41.13478845123152	-10.82753535630367	-10.41194200825384	54.65548924850611	0.9539182416747929	0	0	0	-5.423680897733819	1.255414002369552	-0.9550940462183987	25.63848255030173	-2.003270522608321	10.98284367461596	44.44217203859044	121.5099628915529	0	0	54.84376871974881	9.741807094429438	13.30289197951858	25.94046272281179	113.0131742807808	0	0
15.43999999999976	-6.543924864249875	0.5962349722051502	16.02943542102387	0	0.9399999999999999	0	41.13561402361991	-10.82692752740587	-10.41174711067738	54.65553903928554	0.953919110687831	0	0	0	41.13561402361991	-10.82692752740587	-10.41174711067738	54.65553903928554	0.953919110687831	0	0	0	-5.431006471904554	1.245586988197232	-0.9284017110174947	25.64350591373858	-2.001580160703344	10.93292728425455	44.53146850757477	121.4609311140211	0	0	54.83503287287371	9.717215341995264	13.46004943532783	25.80265988472968	113.2759647782057	0	0
15.45999999999976	-6.544437003112565	0.6039678957668222	16.00822511579718	0	0.9399999999999999	0	41.14257887781628	-10.82214711703678	-10.41016687769078	54.6559600927253	0.9539264594566818	0	0	0	41.14257887781628	-10.82214711703678	-10.41016687769078	54.6559600927253	0.9539264594566818	0	0	0	-5.430236967465489	1.254962227063122	-0.9301699349213015	25.64724363540573	-2.016388031706908	10.97693776218567	44.58589625774807	121.41362896126	0	0	54.79377937659456	9.720198178478176	13.46866933133697	25.86779073310326	113.2449500784523	0	0
15.47999999999976	-6.536231394196021	0.6018088885721048	16.00665175838051	0	0.9399999999999999	0	41.14240159624614	-10.82434799697615	-10.4105839387382	54.65598221201697	0.9539268455111496	0	0	0	41.14240159624614	-10.82434799697615	-10.4105839387382	54.65598221201697	0.9539268455111496	0	0	0	-5.42305798016288	1.250771438166972	-0.930821466579337	25.62324898271931	-2.024698523952816	10.95861706485748	44.58145765247579	121.3827699419836	0	0	54.81279839855194	9.702129438309017	13.45397227486989	25.72933387126072	113.4896755486397	0	0
15.49999999999976	-6.528831191087262	0.5971488212745595	15.98983856021094	0	0.9399999999999999	0	41.14541501400275	-10.82255737627868	-10.4099531514168	54.6561693419943	0.9539301115453832	0	0	0	41.14541501400275	-10.82255737627868	-10.4099531514168	54.6561693419943	0.9539301115453832	0	0	0	-5.417608506255007	1.245137210415845	-0.9330257345389003	25.62268537549278	-2.002140318899938	10.98333312050258	44.60788404284087	121.350998470238	0	0	54.79278958803621	9.686771705651083	13.47861762105807	25.7192048656058	113.5212783591309	0	0
15.51999999999976	-6.511195319613249	0.5852895053275086	15.9723509136073	0	0.9399999999999999	0	41.1463895585867	-10.82183621892285	-10.40972229249696	54.65622770074551	0.9539311300977391	0	0	0	41.1463895585867	-10.82183621892285	-10.40972229249696	54.65622770074551	0.9539311300977391	0	0	0	-5.404234088001867	1.227589137944936	-0.9170092284268306	25.58923348460427	-1.976843594491705	10.9587702233176	44.61926886386826	121.3237515048476	0	0	54.77917555579112	9.646222469108579	13.66914137924388	25.5856591874302	113.4953995107175	0	0
15.53999999999976	-6.504538697050817	0.5814461400832025	15.96327799734533	0	0.9399999999999999	0	41.15070992218106	-10.81841279632114	-10.40866145209839	54.6564825084892	0.9539355773318261	0	0	0	41.15070992218106	-10.81841279632114	-10.40866145209839	54.6564825084892	0.9539355773318261	0	0	0	-5.399373368145928	1.22347821050525	-0.9224191452078767	25.58516042647052	-1.98068020034756	10.97184703248529	44.64594848378563	121.308969687528	0	0	54.76442587669114	9.626463516848276	13.67569417461999	25.62570201851587	113.4730371580294	0	0
15.55999999999976	-6.490126477953991	0.5759284324746963	15.93679237389656	0	0.9399999999999999	0	41.15182356956729	-10.81758706766837	-10.40839712331899	54.6565488708912	0.9539367355742405	0	0	0	41.15182356956729	-10.81758706766837	-10.40839712331899	54.6565488708912	0.9539367355742405	0	0	0	-5.387429940931596	1.212148329682021	-0.8974100392323852	25.44882475598837	-2.020838147283794	10.75069143118502	44.68658567921002	121.5045026425333	0	0	54.77853370974209	9.644159502462369	13.76855938724626	25.45959200982101	113.428129220969	0	0
15.57999999999976	-6.478081390624705	0.5667261861250187	15.9281876073452	0	0.9399999999999999	0	41.15053463063973	-10.81880552613229	-10.40875573836342	54.65647828702478	0.9539355036533727	0	0	0	41.15053463063973	-10.81880552613229	-10.40875573836342	54.65647828702478	0.9539355036533727	0	0	0	-5.378240088527605	1.199400298777452	-0.8944435325055057	25.43742276797477	-1.99638971608991	10.74803542276416	44.65523001283952	121.5383602189613	0	0	54.77278315749793	9.62683918166498	13.79757828176158	25.40530908337283	113.50338100219	0	0
15.59999999999976	-6.454320033516017	0.5523066527357106	15.91630189137312	0	0.9399999999999999	0	41.15179219133262	-10.81773142889553	-10.40843696882658	54.65655359430143	0.9539368180133009	0	0	0	41.15179219133262	-10.81773142889553	-10.40843696882658	54.65655359430143	0.9539368180133009	0	0	0	-5.359468467143119	1.179313028466687	-0.8956990874403271	25.39756926214979	-1.949059595545598	10.74253217011791	44.65009084253563	121.5680540650694	0	0	54.7375653294611	9.59078488092738	13.80342391246573	25.45647455722352	113.6991592413907	0	0
15.61999999999976	-6.443175468156276	0.5424406719764682	15.93683547354789	0	0.9399999999999999	0	41.15768945499182	-10.81470158680079	-10.40728430972081	54.65692538168582	0.953943306927276	0	0	0	41.15768945499182	-10.81470158680079	-10.40728430972081	54.65692538168582	0.953943306927276	0	0	0	-5.352159191979768	1.16888692607421	-0.904282450100211	25.3768948829654	-1.963061549909901	10.83402840269148	44.67887697563339	121.5184103027003	0	0	54.71217131623575	9.591577070165803	13.84638707422748	25.48531055335014	113.7645906654564	0	0
15.63999999999976	-6.4293382059605	0.5388358448780258	15.9558501472321	0	0.9399999999999999	0	41.15890139089202	-10.81380783095915	-10.40699760475533	54.65699782179001	0.9539445712456045	0	0	0	41.15890139089202	-10.81380783095915	-10.40699760475533	54.65699782179001	0.9539445712456045	0	0	0	-5.339743679943288	1.163964186768481	-0.9275206847194778	25.35527012860927	-1.958018117401175	10.83416730869162	44.67400239544887	121.5055020452469	0	0	54.79533525572214	9.578670187730177	13.62549540637376	25.58674042816506	113.9232986876785	0	0
15.65999999999976	-6.416383491239266	0.5192917483573216	16.00132162372274	0	0.9399999999999999	0	41.16452848657953	-10.80982701590507	-10.40569997501198	54.65733641198853	0.9539504807593837	0	0	0	41.16452848657953	-10.80982701590507	-10.40569997501198	54.65733641198853	0.9539504807593837	0	0	0	-5.333319797448478	1.143414212395961	-0.9340140650036043	25.33666598863829	-1.921089759123687	10.78019806274642	44.68467553033712	121.4982344001377	0	0	54.81026710348058	9.5722106105391	13.55824975744181	25.75139988403263	114.2583157406145	0	0
15.67999999999975	-6.395937268319599	0.5081225709707216	16.03218710431263	0	0.9399999999999999	0	41.16627272838226	-10.80787854288785	-10.405171730776	54.65743144984762	0.9539521394829389	0	0	0	41.16627272838226	-10.80787854288785	-10.405171730776	54.65743144984762	0.9539521394829389	0	0	0	-5.317003234626474	1.126508724618563	-0.9248004194060415	25.29631457897083	-1.923000754152944	10.74320551984771	44.68093602693087	121.4933641708762	0	0	54.84127625405277	9.56696085255364	13.55758621880758	25.79755426391142	114.2861019697502	0	0
15.69999999999975	-6.38275720662781	0.5002903062294641	16.05584757016699	0	0.9399999999999999	0	41.17238707936045	-10.8032938737432	-10.40371258074286	54.65779494647371	0.9539584836958841	0	0	0	41.17238707936045	-10.8032938737432	-10.40371258074286	54.65779494647371	0.9539584836958841	0	0	0	-5.307265773931925	1.116266849086145	-0.9201142702057966	25.27832563697218	-1.922043778957431	10.71142780147844	44.71338807034884	121.4648573897872	0	0	54.84746192129996	9.560887291576455	13.5451426849554	25.91415453960849	114.2377603934499	0	0
